<svg width="66" height="36" viewBox="0 0 66 36" fill="none" xmlns="http://www.w3.org/2000/svg">
<path d="M1.092 33.752C2.34 33.648 3.328 33.492 4.056 33.284C4.784 33.076 5.32133 32.7467 5.668 32.296C6.04933 31.8453 6.292 31.256 6.396 30.528C6.5 29.7653 6.552 28.7947 6.552 27.616V8.116C6.552 6.93733 6.5 5.984 6.396 5.256C6.292 4.49333 6.04933 3.88666 5.668 3.436C5.32133 2.98533 4.76667 2.656 4.004 2.448C3.276 2.24 2.27067 2.084 0.988 1.98V0.731998C2.09733 0.835999 3.18933 0.939998 4.264 1.044C5.37333 1.148 6.48267 1.2 7.592 1.2C9.74133 1.2 11.9773 1.11333 14.3 0.939998C16.6227 0.766665 19.3787 0.679999 22.568 0.679999C24.9253 0.679999 27.2653 1.07867 29.588 1.876C31.9453 2.63867 34.0427 3.8 35.88 5.36C37.7173 6.92 39.208 8.86133 40.352 11.184C41.496 13.472 42.068 16.1413 42.068 19.192C42.068 22 41.5653 24.4267 40.56 26.472C39.5893 28.5173 38.2547 30.1987 36.556 31.516C34.892 32.8333 32.9507 33.8213 30.732 34.48C28.548 35.104 26.2253 35.416 23.764 35.416C22.3427 35.416 21.112 35.3987 20.072 35.364C19.032 35.3293 17.992 35.2773 16.952 35.208C15.9467 35.1733 14.872 35.1213 13.728 35.052C12.584 35.0173 11.1973 35 9.568 35C7.73067 35 6.136 35.0173 4.784 35.052C3.432 35.0867 2.20133 35.1387 1.092 35.208V33.752ZM13.52 30.944C13.52 31.4293 13.728 31.8453 14.144 32.192C14.56 32.504 15.1147 32.764 15.808 32.972C16.5013 33.18 17.2987 33.336 18.2 33.44C19.136 33.5093 20.1067 33.544 21.112 33.544C23.1573 33.544 25.012 33.2493 26.676 32.66C28.34 32.036 29.7613 31.1173 30.94 29.904C32.1187 28.656 33.02 27.096 33.644 25.224C34.268 23.352 34.58 21.1507 34.58 18.62C34.58 16.2973 34.2333 14.1653 33.54 12.224C32.8813 10.248 31.9107 8.54933 30.628 7.128C29.3453 5.672 27.768 4.54533 25.896 3.748C24.0587 2.95067 21.9613 2.552 19.604 2.552C18.564 2.552 17.5413 2.62133 16.536 2.76C15.5307 2.89866 14.5253 3.10666 13.52 3.384V30.944ZM40.4333 35L40.1213 33.804C41.7853 32.2093 43.5533 30.528 45.4253 28.76C47.2973 26.992 49.0133 25.12 50.5733 23.144C52.1333 21.168 53.4333 19.0707 54.4733 16.852C55.5133 14.6333 56.0333 12.2587 56.0333 9.728C56.0333 7.26666 55.5306 5.37733 54.5253 4.06C53.5199 2.708 52.2373 2.032 50.6773 2.032C49.9493 2.032 49.3079 2.17067 48.7533 2.448C48.2333 2.69067 47.7999 3.02 47.4533 3.436C47.1066 3.852 46.8293 4.30267 46.6213 4.788C46.4479 5.27333 46.3439 5.75867 46.3093 6.244C46.8639 6.69467 47.3493 7.336 47.7653 8.168C48.2159 9 48.4413 9.74533 48.4413 10.404C48.4413 11.34 48.1466 12.1373 47.5573 12.796C46.9679 13.42 46.0666 13.732 44.8533 13.732C43.8133 13.732 42.9293 13.3853 42.2013 12.692C41.5079 11.964 41.1613 10.872 41.1613 9.416C41.1613 7.92533 41.4386 6.608 41.9933 5.464C42.5479 4.32 43.2933 3.36667 44.2293 2.604C45.1653 1.84133 46.2573 1.26933 47.5053 0.887999C48.7879 0.471998 50.1399 0.263998 51.5613 0.263998C53.0866 0.263998 54.5253 0.454665 55.8773 0.836C57.2293 1.18267 58.4079 1.75467 59.4133 2.552C60.4186 3.31466 61.2159 4.30266 61.8053 5.516C62.3946 6.72933 62.6893 8.20267 62.6893 9.936C62.6893 12.1547 62.1693 14.148 61.1293 15.916C60.1239 17.6493 58.8586 19.2787 57.3333 20.804C55.8079 22.3293 54.1613 23.7853 52.3933 25.172C50.6599 26.5587 49.0826 27.9973 47.6613 29.488H55.4613C56.7439 29.488 57.8013 29.436 58.6333 29.332C59.4653 29.1933 60.1933 28.9853 60.8173 28.708C61.4759 28.396 62.0826 27.98 62.6373 27.46C63.2266 26.94 63.8853 26.2813 64.6133 25.484L65.3413 26.212C64.5439 27.668 63.7813 29.124 63.0533 30.58C62.3253 32.036 61.6493 33.5093 61.0253 35H40.4333Z" fill="black"/>
</svg>
