<svg width="1064" height="575" viewBox="0 0 1064 575" fill="none" xmlns="http://www.w3.org/2000/svg">
<g opacity="0.6" clip-path="url(#clip0_1_446)">
<path d="M988.282 314.147L988.429 313.605L1366.01 414.773L1365.87 415.316L988.282 314.147Z" fill="#D1D1D1"/>
<path d="M992.884 549.156L891.715 171.57L892.257 171.425L993.426 549.009L992.884 549.156Z" fill="#D1D1D1"/>
<path d="M705.445 20.5437L625.817 -276.381L626.3 -276.51L705.928 20.4143L705.445 20.5437Z" fill="#D1D1D1"/>
<path d="M690.124 59.7295L690.249 59.2621L967.321 133.498L967.202 133.971L690.124 59.7295Z" fill="#D1D1D1"/>
<path d="M676.494 -89.4842L676.34 -89.528L613.516 -106.36L567.414 -60.2573L567.457 -60.1032L584.289 2.7207L647.268 19.5969L693.371 -26.5057L693.327 -26.6599L676.494 -89.4842ZM613.687 -105.736L676.041 -89.0316L692.747 -26.6768L647.102 18.9676L584.747 2.26264L568.043 -60.0919L613.687 -105.736Z" fill="#D1D1D1"/>
<path d="M864.496 -39.1149L864.342 -39.1587L801.518 -55.9907L755.416 -9.88804L755.459 -9.73388L772.291 53.0897L835.27 69.9663L881.373 23.8636L881.328 23.7088L864.496 -39.1149ZM801.689 -55.367L864.039 -38.6574L880.749 23.6925L835.104 69.3369L772.75 52.6315L756.045 -9.72257L801.689 -55.367Z" fill="#D1D1D1"/>
<path d="M847.716 -101.791L847.561 -101.835L784.736 -118.666L738.634 -72.5639L738.678 -72.409L755.51 -9.58539L755.665 -9.54154L818.488 7.29043L864.591 -38.8122L864.547 -38.9664L847.716 -101.791ZM784.902 -118.037L847.252 -101.327L863.961 -38.9777L818.317 6.66677L755.963 -10.0379L739.257 -72.3927L784.902 -118.037Z" fill="#D1D1D1"/>
<path d="M785.039 -118.572L784.884 -118.616L722.061 -135.448L675.958 -89.3456L676.003 -89.1907L692.835 -26.3671L755.812 -9.49129L801.915 -55.5939L801.871 -55.7481L785.039 -118.572ZM722.232 -134.825L784.582 -118.114L801.291 -55.7651L755.647 -10.1206L693.293 -26.8253L676.587 -89.1801L722.232 -134.825Z" fill="#D1D1D1"/>
<path d="M996.209 -91.3701L996.054 -91.4146L933.23 -108.247L887.128 -62.1439L887.172 -61.9891L904.004 0.834537L904.158 0.878386L966.985 17.7132L1013.09 -28.3895L1013.04 -28.5436L996.209 -91.3701ZM933.396 -107.617L995.746 -90.9069L1012.45 -28.5606L966.808 17.0839L904.457 0.382L887.751 -61.9728L933.396 -107.617Z" fill="#D1D1D1"/>
<path d="M1167.42 -103.672L1167.27 -103.716L1104.44 -120.552L1058.34 -74.449L1058.38 -74.2949L1075.22 -11.467L1075.37 -11.4239L1138.2 5.41162L1184.3 -40.691L1184.25 -40.8523L1167.42 -103.672ZM1104.61 -119.917L1166.96 -103.208L1183.67 -40.8621L1138.02 4.78235L1075.68 -11.9252L1058.97 -74.2722L1104.61 -119.917Z" fill="#D1D1D1"/>
<path d="M1155.13 67.5381L1154.98 67.4942L1092.15 50.6587L1046.05 96.7614L1046.09 96.9154L1062.93 159.743L1063.08 159.787L1125.9 176.615L1172 130.512L1171.96 130.358L1155.13 67.5381ZM1092.33 51.288L1154.67 67.9963L1171.38 130.343L1125.74 175.987L1063.38 159.285L1046.68 96.9325L1092.33 51.288Z" fill="#D1D1D1"/>
<path d="M983.936 79.8163L983.782 79.7724L920.954 62.9376L874.852 109.04L874.896 109.194L891.731 172.022L891.885 172.065L954.713 188.9L1000.81 142.798L1000.76 142.637L983.936 79.8163ZM921.131 63.567L983.484 80.2688L1000.19 142.622L954.541 188.266L892.189 171.563L875.487 109.211L921.131 63.567Z" fill="#D1D1D1"/>
<path d="M1075.68 -11.9308L1075.53 -11.9747L1012.7 -28.8095L966.599 17.2925L966.643 17.4466L983.478 80.2745L983.632 80.3183L1046.46 97.1531L1092.56 51.0512L1092.51 50.8899L1075.68 -11.9308ZM1012.88 -28.1801L1075.23 -11.4726L1091.93 50.8744L1046.29 96.5189L983.936 79.8163L967.234 17.4643L1012.88 -28.1801Z" fill="#D1D1D1"/>
<path d="M1126.04 176.08L1125.88 176.037L1063.06 159.201L1016.95 205.304L1017 205.458L1033.83 268.286L1033.99 268.329L1096.81 285.157L1142.91 239.055L1142.87 238.9L1126.04 176.08ZM1063.23 159.823L1125.59 176.533L1142.29 238.885L1096.64 284.529L1034.29 267.827L1017.58 205.468L1063.23 159.823Z" fill="#D1D1D1"/>
<path opacity="0.3" d="M1109.64 113.029L1109.22 112.915L1046.13 96.0104L999.648 142.494L999.763 142.917L1016.67 206.001L1017.08 206.108L1080.17 223.012L1126.65 176.529L1126.54 176.113L1109.64 113.029ZM1046.59 97.6785L1108.42 114.249L1124.98 176.075L1079.72 221.339L1017.89 204.776L1001.32 142.942L1046.59 97.6785Z" fill="#1814E5"/>
<path d="M1000.73 142.478L1000.57 142.434L937.751 125.606L891.648 171.708L891.692 171.862L908.52 234.682L971.502 251.562L1017.6 205.459L1017.56 205.305L1000.73 142.478ZM937.915 126.234L1000.27 142.936L1016.98 205.295L971.332 250.94L908.973 234.23L892.271 171.878L937.915 126.234Z" fill="#D1D1D1"/>
<path d="M971.641 251.027L908.66 234.147L862.557 280.25L862.601 280.404L879.436 343.232L942.411 360.104L988.513 314.001L988.469 313.847L971.641 251.027ZM908.831 234.782L971.183 251.485L987.885 313.837L942.241 359.481L879.889 342.779L863.186 280.427L908.831 234.782Z" fill="#D1D1D1"/>
<path d="M954.855 188.348L954.701 188.304L891.881 171.476L845.778 217.578L845.822 217.732L862.65 280.553L925.632 297.432L971.734 251.329L971.691 251.175L954.855 188.348ZM892.045 172.104L954.392 188.811L971.106 251.165L925.462 296.81L863.103 280.1L846.4 217.748L892.045 172.104Z" fill="#D1D1D1"/>
<path d="M1058.88 -74.5741L1058.71 -74.625L995.895 -91.4535L949.792 -45.3508L949.836 -45.1967L966.671 17.6312L966.825 17.675L1029.65 34.5028L1075.75 -11.5998L1075.7 -11.754L1058.88 -74.5741ZM996.066 -90.8298L1058.42 -74.1216L1075.13 -11.7696L1029.48 33.8749L967.129 17.173L950.421 -45.1853L996.066 -90.8298Z" fill="#D1D1D1"/>
<path d="M990.087 -5.78469L989.925 -5.83557L927.105 -22.6633L881.003 23.4386L881.047 23.5928L897.881 86.4206L898.036 86.4645L960.856 103.292L1006.96 57.1903L1006.91 57.0361L990.087 -5.78469ZM927.271 -22.0347L989.628 -5.32648L1006.33 57.0255L960.687 102.67L898.334 85.9681L881.626 23.6098L927.271 -22.0347Z" fill="#D1D1D1"/>
<path d="M708.661 17.5286C710.304 19.1712 710.304 21.8349 708.662 23.4775C707.018 25.1208 704.355 25.1201 702.712 23.4775C701.069 21.8349 701.069 19.1712 702.712 17.5279C704.355 15.8853 707.018 15.886 708.661 17.5286Z" fill="#C5C8CD"/>
<path d="M1037.04 265.079C1038.68 266.719 1038.68 269.381 1037.03 271.024C1035.39 272.666 1032.73 272.669 1031.09 271.028C1029.44 269.381 1029.44 266.719 1031.09 265.077C1032.73 263.434 1035.39 263.431 1037.04 265.079Z" fill="#C5C8CD"/>
<path d="M969.871 14.4167C971.519 16.0642 971.516 18.7258 969.873 20.3684C968.231 22.011 965.569 22.0138 963.922 20.3663C962.281 18.7258 962.284 16.0642 963.927 14.4216C965.569 12.779 968.231 12.7762 969.871 14.4167Z" fill="#C5C8CD"/>
</g>
<defs>
<clipPath id="clip0_1_446">
<rect width="1440" height="808" fill="white" transform="matrix(0.707107 0.707107 0.707107 -0.707107 0 -443.658)"/>
</clipPath>
</defs>
</svg>
