<svg width="1440" height="323" viewBox="0 0 1440 323" fill="none" xmlns="http://www.w3.org/2000/svg">
<g opacity="0.6" clip-path="url(#clip0_105_340)">
<path d="M1291.86 160.028L1291.54 159.541L1667.69 -35.9151L1668 -35.4281L1291.86 160.028Z" fill="#D1D1D1"/>
<path d="M1480.11 322.95L1103.97 127.494L1104.28 127.008L1480.42 322.463L1480.11 322.95Z" fill="#D1D1D1"/>
<path d="M838.961 152.415L543.113 -1.23695L543.391 -1.66997L839.239 151.982L838.961 152.415Z" fill="#D1D1D1"/>
<path d="M857.711 190.957L857.442 190.538L1133.46 47.111L1133.73 47.53L857.711 190.957Z" fill="#D1D1D1"/>
<path d="M355.214 62.29L355.058 62.368L292.474 94.889V160.088L292.631 160.166L355.214 192.688L417.953 160.088V94.889L417.798 94.811L355.214 62.29ZM293.099 95.217L355.214 62.938L417.329 95.217V159.768L355.214 192.04L293.099 159.768V95.217Z" fill="#D1D1D1"/>
<path d="M604.923 -2.57997L604.767 -2.502L542.183 30.019V95.218L542.34 95.296L604.923 127.817L605.079 127.739L667.662 95.218V30.019L667.507 29.941L604.923 -2.57997ZM542.808 30.339L604.923 -1.93999L667.039 30.339V94.89L604.923 127.17L542.808 94.89V30.339Z" fill="#D1D1D1"/>
<path d="M542.497 -2.78302L542.08 -2.56503L479.237 30.089V95.827L479.652 96.045L542.497 128.699L605.756 95.827V30.089L605.34 29.871L542.497 -2.78302ZM480.901 30.956L542.497 -1.05103L604.091 30.956V94.968L542.497 126.974L480.901 94.968V30.956Z" fill="#D1D1D1"/>
<path d="M729.769 95.085L729.613 95.163L667.03 127.684V192.883L667.186 192.961L729.769 225.482L792.509 192.883V127.684L792.353 127.606L729.769 95.085ZM667.654 128.004L729.769 95.725L791.884 128.004V192.555L729.769 224.835L667.654 192.555V128.004Z" fill="#D1D1D1"/>
<path d="M667.342 62.6359L667.187 62.7139L604.603 95.235V160.434L604.759 160.512L667.342 193.033L730.082 160.434V95.235L729.926 95.157L667.342 62.6359ZM605.235 95.563L667.351 63.2829L729.467 95.563V160.114L667.351 192.393L605.235 160.114V95.563Z" fill="#D1D1D1"/>
<path d="M355.214 29.668L354.798 29.887L291.954 62.541V128.278L355.214 161.15L418.474 128.278V62.541L418.058 62.322L355.214 29.668ZM293.619 63.407L355.214 31.401L416.809 63.407V127.419L355.214 159.418L293.619 127.412V63.407Z" fill="#D1D1D1"/>
<path d="M292.787 -2.23598L292.631 -2.15797L230.047 30.363V95.562L230.203 95.64L292.787 128.161L355.527 95.562V30.363L355.37 30.285L292.787 -2.23598ZM230.671 30.683L292.787 -1.59599L354.902 30.683V95.234L292.787 127.513L230.671 95.234V30.683Z" fill="#D1D1D1"/>
<path d="M480.069 30.206L479.912 30.284L417.329 62.805V128.004L417.486 128.082L480.069 160.604L542.808 128.004V62.805L542.652 62.727L480.069 30.206ZM417.953 63.133L480.069 30.862L542.183 63.133V127.684L480.069 159.964L417.953 127.684V63.133Z" fill="#D1D1D1"/>
<path d="M480.069 95.085L479.912 95.163L417.329 127.684V192.883L417.486 192.961L480.069 225.482L542.808 192.883V127.684L542.652 127.606L480.069 95.085ZM417.953 128.004L480.069 95.725L542.183 128.004V192.555L480.069 224.835L417.953 192.555V128.004Z" fill="#D1D1D1"/>
<path d="M417.641 -67.1089L417.484 -67.0299L354.901 -34.5089V30.6901L355.058 30.7681L417.641 63.2891L417.797 63.2111L480.38 30.6901V-34.5089L480.224 -34.5869L417.641 -67.1089ZM355.526 -34.1809L417.641 -66.4529L479.757 -34.1809V30.3701L417.641 62.649L355.526 30.3701V-34.1809Z" fill="#D1D1D1"/>
<path d="M729.769 -67.442L729.613 -67.364L667.03 -34.843V30.356L667.186 30.434L729.769 62.955L729.926 62.877L792.509 30.356V-34.843L792.353 -34.921L729.769 -67.442ZM667.654 -34.523L729.769 -66.803L791.884 -34.523V30.028L729.769 62.3L667.654 30.028V-34.523Z" fill="#D1D1D1"/>
<path d="M792.197 -100.448L791.781 -100.23L728.937 -67.576V-1.83807L729.353 -1.62006L792.197 31.0339L792.613 30.8159L855.457 -1.83807V-67.576L855.04 -67.7941L792.197 -100.448ZM730.602 -66.7091L792.197 -98.7161L853.792 -66.7091V-2.69705L792.197 29.3089L730.602 -2.69705V-66.7091Z" fill="#D1D1D1"/>
<path d="M917.051 -2.23598L916.896 -2.15797L854.312 30.363V95.562L854.468 95.64L917.051 128.161L979.791 95.562V30.363L979.635 30.285L917.051 -2.23598ZM854.937 30.683L917.051 -1.58897L979.167 30.683V95.234L917.051 127.513L854.937 95.234V30.683Z" fill="#D1D1D1"/>
<path d="M854.625 -34.689L854.468 -34.611L791.885 -2.089V63.11L792.041 63.188L854.625 95.709L854.78 95.631L917.363 63.11V-2.089L917.208 -2.16701L854.625 -34.689ZM792.509 -1.761L854.625 -34.033L916.739 -1.761V62.79L854.625 95.069L792.509 62.79V-1.761Z" fill="#D1D1D1"/>
<path d="M792.197 -2.23598L792.04 -2.15797L729.457 30.363V95.562L729.613 95.64L792.197 128.161L854.936 95.562V30.363L854.78 30.285L792.197 -2.23598ZM730.081 30.683L792.197 -1.58897L854.311 30.683V95.234L792.197 127.513L730.081 95.234V30.683Z" fill="#D1D1D1"/>
<path d="M1104.33 -2.59601L1104.18 -2.51801L1041.59 30.004V95.202L1041.74 95.28L1104.33 127.802L1104.49 127.724L1167.08 95.202V30.004L1166.91 29.926L1104.33 -2.59601ZM1042.22 30.324L1104.33 -1.95599L1166.44 30.324V94.875L1104.33 127.154L1042.22 94.875V30.324Z" fill="#D1D1D1"/>
<path d="M1291.61 -35.008L1291.46 -34.93L1228.87 -2.40898V62.79L1229.02 62.868L1291.61 95.39L1291.77 95.312L1354.34 62.79V-2.40898L1354.19 -2.48698L1291.61 -35.008ZM1229.49 -2.08897L1291.61 -34.368L1353.72 -2.08897V62.462L1291.61 94.742L1229.49 62.462V-2.08897Z" fill="#D1D1D1"/>
<path opacity="0.3" d="M1229.19 -67.996L1228.77 -67.778L1165.92 -35.124V30.614L1166.34 30.832L1229.19 63.486L1229.6 63.268L1292.44 30.614V-35.124L1292.03 -35.342L1229.19 -67.996ZM1167.59 -34.265L1229.19 -66.271L1290.78 -34.265V29.747L1229.19 61.754L1167.59 29.747V-34.265Z" fill="#1814E5"/>
<path d="M1166.76 29.841L1166.6 29.919L1104.02 62.44V127.639L1104.18 127.717L1166.76 160.238L1229.5 127.639V62.44L1229.34 62.362L1166.76 29.841ZM1104.64 62.768L1166.76 30.489L1228.88 62.768V127.319L1166.76 159.598L1104.64 127.319V62.768Z" fill="#D1D1D1"/>
<path d="M1229.19 127.162L1166.44 159.761V224.96L1166.6 225.038L1229.19 257.56L1291.92 224.96V159.761L1291.77 159.683L1229.19 127.162ZM1167.08 160.089L1229.19 127.81L1291.3 160.089V224.64L1229.19 256.92L1167.08 224.64V160.089Z" fill="#D1D1D1"/>
<path d="M1166.76 94.711L1166.6 94.789L1104.02 127.31V192.509L1104.18 192.587L1166.76 225.108L1229.5 192.509V127.31L1229.34 127.232L1166.76 94.711ZM1104.64 127.638L1166.76 95.366L1228.88 127.638V192.189L1166.76 224.468L1104.64 192.189V127.638Z" fill="#D1D1D1"/>
<path d="M1041.91 -67.4739L1041.74 -67.3959L979.167 -34.8739V30.3241L979.322 30.4021L1041.91 62.9241L1042.07 62.8461L1104.64 30.3241V-34.8739L1104.49 -34.9519L1041.91 -67.4739ZM979.791 -34.5469L1041.91 -66.8259L1104.02 -34.5469V30.0041L1041.91 62.2841L979.791 30.0041V-34.5469Z" fill="#D1D1D1"/>
<path d="M1416.46 -35.585L1416.04 -35.366L1353.2 -2.71204V63.025L1353.62 63.243L1416.46 95.897L1416.88 95.679L1479.72 63.025V-2.71204L1479.3 -2.93103L1416.46 -35.585ZM1354.87 -1.85403L1416.46 -33.86L1478.06 -1.85403V62.159L1416.46 94.165L1354.87 62.159V-1.85403Z" fill="#D1D1D1"/>
<path d="M1416.46 -99.902L1416.3 -99.824L1353.72 -67.303V-2.104L1353.88 -2.026L1416.46 30.495L1416.62 30.417L1479.2 -2.104V-67.303L1479.04 -67.381L1416.46 -99.902ZM1354.34 -66.975L1416.46 -99.255L1478.58 -66.975V-2.42401L1416.46 29.855L1354.34 -2.42401V-66.975Z" fill="#D1D1D1"/>
<path d="M417.641 -99.184L417.484 -99.106L354.901 -66.584V-1.38599L355.058 -1.30701L417.641 31.214L417.797 31.136L480.38 -1.38599V-66.584L480.224 -66.662L417.641 -99.184ZM355.526 -66.264L417.641 -98.536L479.757 -66.264V-1.71301L417.641 30.558L355.526 -1.71301V-66.264Z" fill="#D1D1D1"/>
<path d="M47.6644 -8.15106C50.2456 -8.15106 52.3389 -6.26706 52.3389 -3.94406C52.3389 -1.62106 50.2456 0.262939 47.6644 0.262939C45.0833 0.262939 42.99 -1.62106 42.99 -3.94406C42.99 -6.26706 45.0833 -8.15106 47.6644 -8.15106Z" fill="#C5C8CD"/>
<path d="M839.119 148.009C841.7 148.009 843.793 149.892 843.793 152.215C843.793 154.539 841.7 156.422 839.119 156.422C836.538 156.422 834.444 154.539 834.444 152.215C834.444 149.892 836.538 148.009 839.119 148.009Z" fill="#C5C8CD"/>
<path d="M1291.61 90.855C1294.19 90.855 1296.28 92.739 1296.28 95.062C1296.28 97.385 1294.19 99.269 1291.61 99.269C1289.02 99.269 1286.93 97.385 1286.93 95.062C1286.93 92.739 1289.02 90.855 1291.61 90.855Z" fill="#C5C8CD"/>
<path d="M359.888 30.5359C359.888 28.2099 357.798 26.3289 355.213 26.3289C352.629 26.3289 350.54 28.2099 350.54 30.5359C350.54 32.8609 352.629 34.7419 355.213 34.7419C357.798 34.7419 359.888 32.8539 359.888 30.5359Z" fill="#C5C8CD"/>
</g>
<defs>
<clipPath id="clip0_105_340">
<rect width="1600" height="808" fill="white" transform="matrix(1 0 0 -1 -80 323)"/>
</clipPath>
</defs>
</svg>
